<svg width="45" height="40" viewBox="0 0 45 40" fill="none" xmlns="http://www.w3.org/2000/svg">
<path d="M39.1596 15.3468L37.5166 24.5584C37.314 25.576 36.4844 26.1948 35.5277 26.2064H11.5742L11.0986 28.8262H33.928C35.1301 28.9155 35.9455 29.7477 35.9601 30.8121C35.8727 31.9845 35.0212 32.7836 33.928 32.7982H8.67733C7.31171 32.6781 6.4974 31.6143 6.64517 30.4319L7.72609 24.6851L6.08307 8.54355L1.41346 7.10696C0.272325 6.66417 -0.193419 5.65531 0.0730986 4.6139C0.516249 3.52855 1.57811 3.03267 2.6241 3.30398L8.59084 5.16322C9.39467 5.4577 9.85709 6.10074 9.97443 6.85345L10.3203 10.0649L37.3869 13.0227C38.6305 13.286 39.3057 14.2487 39.1596 15.3468ZM14.8644 36.9682C14.8644 38.6426 13.4755 40 11.7621 40C10.0487 40 8.65983 38.6426 8.65983 36.9682C8.65983 35.2937 10.0488 33.9363 11.7621 33.9363C13.4754 33.9363 14.8644 35.2938 14.8644 36.9682ZM33.3848 36.9682C33.3848 38.6426 31.9959 40 30.2825 40C28.5692 40 27.1802 38.6426 27.1802 36.9682C27.1802 35.2937 28.5692 33.9363 30.2825 33.9363C31.9959 33.9363 33.3848 35.2938 33.3848 36.9682Z" fill="white"/>
<ellipse cx="31.9594" cy="11.8471" rx="12.1225" ry="11.8471" fill="#2FC18C"/>
<path d="M33.7835 11.5649C34.1784 11.5787 34.5205 11.6912 34.8098 11.9024C35.1036 12.1136 35.3264 12.3937 35.4779 12.7427C35.634 13.0917 35.7121 13.4866 35.7121 13.9274C35.7121 14.4922 35.5904 15.0157 35.347 15.4978C35.1036 15.9753 34.7248 16.3611 34.2105 16.6549C33.7008 16.9442 33.0419 17.0889 32.2337 17.0889C31.545 17.0889 30.971 16.9993 30.5118 16.8202C30.0526 16.6366 29.6876 16.3863 29.4167 16.0695C29.1503 15.7526 28.9598 15.3899 28.845 14.9812C28.7348 14.5679 28.6797 14.1271 28.6797 13.6588C28.6797 13.6542 28.6797 13.6496 28.6797 13.645C28.6797 13.6404 28.6797 13.6358 28.6797 13.6312H30.8149C30.8149 13.6358 30.8149 13.6404 30.8149 13.645C30.8149 13.6496 30.8149 13.6542 30.8149 13.6588C30.8149 14.1225 30.8723 14.483 30.9871 14.7401C31.1065 14.9973 31.2741 15.1764 31.4899 15.2774C31.7057 15.3784 31.9628 15.4289 32.2613 15.4289C32.6516 15.4289 32.9661 15.3072 33.2049 15.0639C33.4483 14.8205 33.57 14.4233 33.57 13.8723C33.57 13.6381 33.5424 13.4292 33.4873 13.2455C33.4368 13.0618 33.3542 12.9057 33.2394 12.7771C33.1246 12.6486 32.9684 12.5521 32.771 12.4878C32.5735 12.419 32.3302 12.3845 32.0409 12.3845H31.6827V10.8899H32.0409C32.3256 10.8899 32.5644 10.8531 32.7572 10.7797C32.9547 10.7016 33.1131 10.5983 33.2325 10.4697C33.3519 10.3366 33.4368 10.1873 33.4873 10.022C33.5424 9.85213 33.57 9.67764 33.57 9.49856C33.57 9.07152 33.4506 8.76157 33.2118 8.56871C32.973 8.37585 32.6677 8.27942 32.2957 8.27942C31.8687 8.27942 31.5151 8.39651 31.235 8.6307C30.9549 8.86488 30.8149 9.28963 30.8149 9.90493H28.6797C28.6797 9.46412 28.7462 9.04626 28.8794 8.65136C29.0126 8.25187 29.2215 7.9006 29.5062 7.59754C29.7909 7.28988 30.1605 7.04881 30.6151 6.87432C31.0697 6.69983 31.6161 6.61259 32.2544 6.61259C33.0626 6.61259 33.7215 6.74575 34.2312 7.01208C34.7409 7.2784 35.1151 7.62279 35.3539 8.04524C35.5927 8.46769 35.7121 8.91539 35.7121 9.38835C35.7121 9.77407 35.634 10.1299 35.4779 10.456C35.3264 10.782 35.1036 11.0437 34.8098 11.2412C34.5205 11.4386 34.1784 11.5465 33.7835 11.5649Z" fill="white"/>
</svg>
